<svg xmlns="http://www.w3.org/2000/svg" width="20" height="20" fill="none"><path fill="#fff" fill-rule="evenodd" d="M1.849 3.022c-.317.08-.609.327-.758.642-.119.25-.122.722-.006.97.12.257.264.413.506.549l.222.125h16.378l.18-.098c.267-.146.377-.257.51-.512.109-.21.119-.257.119-.54 0-.285-.01-.331-.12-.543a1.121 1.121 0 0 0-.53-.526l-.159-.083-8.118-.005c-4.465-.003-8.166.006-8.224.02Zm0 5.846c-.317.08-.609.327-.758.642-.119.25-.122.722-.006.97.12.257.264.413.506.549l.222.125h16.378l.18-.098c.267-.146.377-.256.51-.512.109-.21.119-.257.119-.54 0-.285-.01-.331-.12-.543a1.121 1.121 0 0 0-.53-.526l-.159-.083-8.118-.005c-4.465-.004-8.166.006-8.224.02Zm0 5.846c-.317.08-.609.327-.758.642-.119.25-.122.722-.006.97.12.257.264.413.506.549l.222.125h16.378l.18-.099c.267-.145.377-.256.51-.511.109-.21.119-.257.119-.54 0-.285-.01-.331-.12-.543a1.122 1.122 0 0 0-.53-.526l-.159-.083-8.118-.005c-4.465-.003-8.166.006-8.224.02Z" clip-rule="evenodd" opacity=".4"/></svg>