<svg xmlns="http://www.w3.org/2000/svg" width="21" height="20" fill="none"><g clip-path="url(#a)"><path fill="#1A1A1A" d="M10.5 0C8.472 0 6.49.586 4.802 1.685a10.06 10.06 0 0 0-3.778 4.488 9.768 9.768 0 0 0-.583 5.778 9.926 9.926 0 0 0 2.807 5.12 10.34 10.34 0 0 0 5.251 2.737c1.99.386 4.052.188 5.926-.57a10.205 10.205 0 0 0 4.603-3.682A9.824 9.824 0 0 0 20.757 10a9.875 9.875 0 0 0-3.005-7.071A10.391 10.391 0 0 0 10.5 0Zm4.023 12.744-1.208 1.178-2.815-2.744-2.814 2.744-1.209-1.178L9.292 10 6.477 7.256l1.209-1.179L10.5 8.822l2.815-2.744 1.208 1.178L11.71 10l2.814 2.744Z"/></g><defs><clipPath id="a"><path fill="#fff" d="M.244 0h20.513v20H.244z"/></clipPath></defs></svg>