<svg xmlns="http://www.w3.org/2000/svg" width="20" height="20" fill="none"><path fill="#F0552E" fill-rule="evenodd" d="M8.97.055c-.924.1-2.044.458-2.91.93-2.112 1.153-3.499 3.101-3.973 5.583-.104.546-.118 2.093-.023 2.624.226 1.266.662 2.36 1.333 3.35.34.502 6.023 7.262 6.2 7.375.171.11.634.11.805 0 .176-.112 5.86-6.875 6.2-7.376.672-.99 1.107-2.083 1.334-3.35.096-.535.081-2.076-.025-2.634-.366-1.927-1.315-3.569-2.736-4.736C13.478.427 11.286-.197 8.97.055Zm1.688 4.635c1.426.295 2.492 1.582 2.492 3.01 0 1.747-1.54 3.167-3.322 3.064-.823-.047-1.469-.336-2.077-.93a2.997 2.997 0 0 1-.83-2.778C7.279 5.41 8.97 4.34 10.659 4.69Z" clip-rule="evenodd"/></svg>