<svg xmlns="http://www.w3.org/2000/svg" width="20" height="20" fill="none"><path fill="#fff" fill-rule="evenodd" d="M9.555 13.24c-.139-.065-.974-.865-2.499-2.395l-2.29-2.298.65-.655c.357-.36.717-.704.799-.764l.148-.108 1.27 1.271 1.27 1.27V0h2.188V9.562l1.276-1.276 1.275-1.276.781.78.782.782-2.278 2.285c-1.517 1.522-2.348 2.319-2.487 2.384a1.244 1.244 0 0 1-.443.097c-.128 0-.328-.044-.442-.097ZM0 12.96c0 3.106.015 3.349.24 4.026.221.664.512 1.118 1.088 1.694.74.741 1.48 1.126 2.45 1.276.246.038 2.306.051 6.454.04l6.092-.015.374-.116c.824-.254 1.44-.617 1.982-1.168a4.491 4.491 0 0 0 1.166-1.971c.116-.385.119-.441.136-3.557L20 10.003h-2.241l-.015 3.062-.014 3.061-.166.35c-.23.488-.57.834-1.05 1.072l-.393.194H3.879l-.35-.166a2.192 2.192 0 0 1-1.07-1.051l-.194-.393-.015-3.065-.014-3.064H0v2.957Z" clip-rule="evenodd"/></svg>